<?xml version="1.0" encoding="UTF-8" standalone="no"?>
<!DOCTYPE svg PUBLIC "-//W3C//DTD SVG 1.1//EN" "http://www.w3.org/Graphics/SVG/1.1/DTD/svg11.dtd">
<svg width="100%" height="100%" viewBox="0 0 594 586" version="1.1" xmlns="http://www.w3.org/2000/svg" xmlns:xlink="http://www.w3.org/1999/xlink" xml:space="preserve" xmlns:serif="http://www.serif.com/" style="fill-rule:evenodd;clip-rule:evenodd;stroke-linejoin:round;stroke-miterlimit:2;">
    <g transform="matrix(1,0,0,1,-52.026605,-53.527355)">
        <g id="AddModel" transform="matrix(1.067281,0,0,1.067281,-12.583589,-33.01062)">
            <g transform="matrix(0.866427,0,0,0.866427,143.697875,178.654403)">
                <path d="M12.965,185.5C13.7,116.639 8.708,109.223 33.774,93.954C41.29,89.376 180.839,20.14 183.649,18.816C206.301,8.142 208.472,10.895 254.746,34.001C377.827,95.46 382.28,95.909 390.015,107.807C395.674,116.513 394.984,117.386 394.906,261.501C394.882,306.909 400.735,315.453 360.253,336.022C348.833,341.825 258.437,387.758 216.701,406.95C202.294,413.576 195.399,410.202 134.575,379.353C61.497,342.289 30.336,328.187 23.608,321.392C11.301,308.962 12.894,306.582 12.965,185.5ZM358.05,109.504C357.039,103.467 354.595,104.026 331.537,92.427C209.68,31.132 209.341,30.162 201.45,31.207C198.812,31.556 198.598,31.29 103.271,79.037C51.653,104.892 48.911,105.015 50.279,110.542C51.472,115.36 52.802,115.023 142.331,159.839C201.252,189.334 201.791,190.656 207.451,188.376C217.738,184.233 218.936,183.75 331.644,126.784C355.965,114.491 357.275,114.795 358.05,109.504ZM213.035,313.5C213.003,381.248 212.154,384.144 218.541,385.231C221.619,385.755 221.607,384.771 341.322,325.143C372.972,309.379 376.865,308.65 376.94,286.5C376.981,274.254 377.441,137.127 376.781,133.433C374.878,122.786 363.56,130.918 327.692,148.882C225.395,200.117 225.11,199.504 216.638,204.709C212.588,207.197 213.066,212.011 213.057,238.499L213.035,313.5ZM31.035,200.5C31.001,301.814 29.992,303.662 37.868,310.05C38.928,310.909 184.492,385.657 189.466,385.085C195.684,384.371 194.9,381.373 194.913,317.5C194.934,209.353 195.163,208.912 193.239,206.717C189.879,202.882 40.768,128.736 37.503,128.47C29.51,127.817 31.096,143.4 31.095,143.493C31.057,146.981 31.045,146.95 31.035,200.5Z" style="fill:rgb(254,254,254);fill-opacity:1;stroke:white;stroke-width:10.09px;"/>
            </g>
            <g transform="matrix(0.936961,0,0,0.936961,58.638366,97.453867)">
                <path d="M555.4,213.171C560.101,213.171 563.916,216.973 563.933,221.674C563.946,458.083 564.009,458.529 562.561,463.521C562.37,464.176 559.945,479.309 555.943,487.696C555.387,488.861 552.27,495.395 549.532,502.516C549.507,502.581 533.067,533.533 503.72,549.919C467.929,569.903 463.871,567.812 342.5,567.812C114.418,567.812 114.21,568.185 103.588,565.245C102.886,565.051 93.337,563.008 92.444,562.817C92.334,562.793 63.469,555.565 43.331,535.674C39.723,532.11 38.746,533.122 36.083,528.761C33.189,524.022 27.182,523.375 12.782,494.357C2.124,472.88 2.104,443.05 2.101,438.5C2.083,412.818 1.881,120.15 2.231,117.469C6.047,88.241 9.467,82.454 18.442,64.465C19.105,63.135 28.085,49.543 31.793,45.789C36.624,40.898 35.41,39.649 41.237,36.081C45.276,33.608 45.921,29.12 64.262,19.056C98.558,0.239 103.602,2.174 217.5,2.174C276.995,2.174 320.628,2.167 352.72,2.174C357.432,2.175 361.251,5.995 361.251,10.707C361.251,13.707 361.251,17.078 361.251,20.079C361.251,22.344 360.351,24.515 358.749,26.116C357.147,27.716 354.975,28.614 352.71,28.612C263.621,28.542 143.604,28.81 127.501,28.846C86.44,28.938 69.918,47.916 61.763,52.92C57.902,55.29 45.399,70.939 44.947,71.749C33.97,91.418 28.013,102.423 28.013,136.5C28.013,444.604 27.986,444.599 28.242,445.583C29.208,449.296 27.24,504.388 86.715,533.047C93.945,536.531 113.45,540.727 116.539,541.035C124.665,541.848 413.661,541.198 439.498,541.14C446.102,541.125 445.971,540.783 452.46,540.215C483.89,537.465 512.82,514.523 526.052,490.267C536.434,471.235 537.703,449.969 538.051,447.491L538.085,247.5C538.085,238.272 538.089,229.689 538.093,221.699C538.096,216.989 541.915,213.171 546.626,213.171C549.445,213.171 552.581,213.171 555.4,213.171Z" style="fill:white;fill-opacity:1;"/>
            </g>
            <g transform="matrix(1.034869,0,0,1.034869,-168.373393,66.646153)">
                <path d="M665.198,107.124L594.05,107.124C591.86,107.124 590.082,105.346 590.082,103.156L590.082,97.864C590.082,95.674 591.86,93.896 594.05,93.896L665.198,93.896L665.198,22.747C665.198,20.557 666.977,18.779 669.167,18.779L674.458,18.779C676.648,18.779 678.427,20.557 678.427,22.747L678.427,93.896L749.575,93.896C751.765,93.896 753.544,95.674 753.544,97.864L753.544,103.156C753.544,105.346 751.765,107.124 749.575,107.124L678.427,107.124L678.427,178.272C678.427,180.463 676.648,182.241 674.458,182.241L669.167,182.241C666.977,182.241 665.198,180.463 665.198,178.272L665.198,107.124Z" style="fill:white;fill-opacity:1;stroke:white;stroke-width:9.66px;stroke-linecap:round;stroke-miterlimit:1.5;"/>
            </g>
        </g>
    </g>
</svg>
