<?xml version="1.0" encoding="UTF-8" standalone="no"?>
<!DOCTYPE svg PUBLIC "-//W3C//DTD SVG 1.1//EN" "http://www.w3.org/Graphics/SVG/1.1/DTD/svg11.dtd">
<svg width="100%" height="100%" viewBox="0 0 35 41" version="1.1" xmlns="http://www.w3.org/2000/svg" xmlns:xlink="http://www.w3.org/1999/xlink" xml:space="preserve" xmlns:serif="http://www.serif.com/" style="fill-rule:evenodd;clip-rule:evenodd;stroke-linejoin:round;stroke-miterlimit:2;">
    <g transform="matrix(1,0,0,1,-1236.594572,-9.447055)">
        <g id="avatar.png" transform="matrix(0.096559,0,0,0.096559,1236.809309,9.650106)">
            <path d="M161.449,217.931C156.36,217.121 126.141,212.311 102.914,191.039C98.937,187.396 76.129,166.508 69.469,132.506C49.655,31.36 168.124,-36.572 245.14,28.921C321.469,93.832 275.871,228.735 161.449,217.931ZM162.551,11.939C167.272,11.511 199.351,6.405 232.171,28.977C244.955,37.769 256.759,51.515 263.133,63.696C302.826,139.553 237.92,218.327 166.504,210.451C50.527,197.66 41.662,32.351 162.551,11.939Z" style="fill:white;fill-opacity:0.99;stroke:white;stroke-width:10.36px;"/>
            <path d="M174.497,244.957C67.94,247.333 20.287,327.646 10.997,380.596C8.455,395.082 18.312,403.805 26.62,406.036C32.941,407.733 218.452,406.381 252.481,406.833C257.287,406.897 258.268,411.87 255.212,414.051C254.019,414.903 253.851,414.809 67.5,414.809C30.065,414.809 15.468,417.72 5.297,397.593C-4.247,378.707 16.471,323.68 47.514,291.514C150.506,184.797 322.336,245.066 345.322,381.532C350.679,413.337 347.122,414.134 344.516,414.591C338.424,415.661 339.63,402.656 339.623,402.494C336.58,335.36 284.963,248.196 174.497,244.957Z" style="fill:white;fill-opacity:0.99;stroke:white;stroke-width:10.36px;"/>
        </g>
    </g>
</svg>
